<svg width="1178" height="725" viewBox="0 0 1178 725" fill="none" xmlns="http://www.w3.org/2000/svg">
<rect width="1178" height="725" fill="white"/>
<g id="undraw_under_construction_46pa 1">
<g clip-path="url(#clip0)">
<path id="cloud" opacity="0.1" d="M1134.78 452.79C1134.8 472.419 1132.43 491.976 1127.71 511.03C1126.12 517.45 1124.28 523.737 1122.18 529.89C1119.61 537.485 1116.63 544.936 1113.26 552.21C1111.56 555.89 1109.76 559.497 1107.87 563.03C1107.9 583.158 1103.76 603.074 1095.7 621.52C1081.14 654.614 1055.16 681.373 1022.52 696.92C1002.11 706.658 979.804 711.78 957.19 711.92H180.55C145.996 711.994 112.038 702.916 82.13 685.61L81.67 685.35C77.41 682.857 73.2567 680.217 69.21 677.43C60.1052 671.14 51.5511 664.088 43.64 656.35C32.9324 645.886 23.4972 634.195 15.53 621.52C-3.18209 591.808 -13.0948 557.403 -13.06 522.29C-32.01 489.04 -43.06 449.21 -43.06 406.41C-43.06 352.41 -25.5 303.15 3.35 265.86C9.36468 258.069 15.953 250.739 23.06 243.93C30.0724 237.192 37.6095 231.023 45.6 225.48C51.993 221.041 58.6745 217.032 65.6 213.48C68.49 212.01 71.39 210.62 74.34 209.33C76.93 208.18 79.55 207.11 82.2 206.1C85.38 204.893 88.6 203.783 91.86 202.77C95.12 201.757 98.3367 200.87 101.51 200.11C106.177 198.97 110.923 198.043 115.75 197.33C119.75 196.74 123.75 196.33 127.75 196.02C130.93 195.78 134.14 195.65 137.37 195.61H139.12C142.68 195.61 146.22 195.75 149.73 195.99C150.1 195.25 150.5 194.5 150.87 193.77C152.27 191.1 153.72 188.44 155.18 185.84C155.177 185.817 155.177 185.793 155.18 185.77C155.43 185.31 155.68 184.86 155.94 184.42C157.12 182.29 158.35 180.18 159.61 178.09C160.19 177.09 160.76 176.15 161.35 175.21C161.475 174.976 161.612 174.749 161.76 174.53C162.36 173.53 162.97 172.53 163.59 171.53C166.677 166.597 169.887 161.75 173.22 156.99L174.07 155.77C174.59 155.03 175.07 154.31 175.65 153.57C177.03 151.64 178.45 149.7 179.88 147.8C180.88 146.44 181.88 145.09 182.96 143.8C185.56 140.467 188.227 137.133 190.96 133.8C193.693 130.467 196.533 127.177 199.48 123.93C199.88 123.48 200.28 123.04 200.7 122.6L204.97 117.94C205.18 117.72 205.36 117.52 205.56 117.32C206.07 116.77 206.56 116.22 207.11 115.69C209.4 113.26 211.75 110.88 214.11 108.51C226.12 96.5473 238.916 85.3993 252.41 75.1399C252.94 74.7199 253.48 74.3199 254.01 73.9199C256.55 72.0099 259.13 70.1199 261.71 68.2599C275.901 58.0794 290.735 48.8268 306.12 40.5599C307.18 39.9499 308.26 39.3799 309.35 38.8199C323.143 31.523 337.328 24.9931 351.84 19.2599C359.75 16.1299 367.84 13.1899 375.98 10.4999C381.4 8.7199 386.84 7.0299 392.35 5.4399C400.963 2.9599 409.637 0.736567 418.37 -1.2301C444.099 -7.00325 470.274 -10.5695 496.61 -11.8901C504.61 -12.2968 512.7 -12.5068 520.88 -12.5201C560.35 -12.5724 599.666 -7.59904 637.88 2.27989C638.275 2.87699 638.816 3.36375 639.451 3.69439C640.086 4.02502 640.794 4.18866 641.51 4.1699H644.87C646.33 4.5699 647.78 4.9699 649.24 5.3899C657.393 7.73656 665.43 10.2999 673.35 13.0799L675.35 13.7999C694.898 20.7508 713.917 29.106 732.26 38.7999C748.795 47.5174 764.715 57.3536 779.91 68.2399C782.25 69.9199 784.557 71.6132 786.83 73.3199C789.59 71.5532 792.397 69.8599 795.25 68.2399C806.269 61.9643 817.972 56.9749 830.13 53.3699C855.548 45.8481 882.442 44.7962 908.37 50.3099C941.62 57.3599 971.72 74.8599 996.03 99.7499C1005.93 109.934 1014.74 121.121 1022.32 133.13C1022.87 133.99 1023.42 134.86 1023.95 135.74C1030.47 146.369 1036.07 157.532 1040.69 169.11C1040.86 169.54 1041.03 169.94 1041.18 170.36C1045.45 181.201 1048.89 192.349 1051.48 203.71C1051.6 204.29 1051.74 204.86 1051.86 205.44C1054.28 216.434 1055.92 227.585 1056.78 238.81C1056.78 239.21 1056.78 239.62 1056.86 240.04C1057.28 245.847 1057.49 251.713 1057.5 257.64C1057.5 262.94 1057.32 268.2 1056.99 273.42C1056.99 273.99 1056.91 274.58 1056.86 275.17C1056.77 276.68 1056.64 278.17 1056.51 279.69C1064.15 285.85 1071.3 292.594 1077.89 299.86C1080.8 303.04 1083.62 306.34 1086.35 309.76C1094.66 320.169 1101.95 331.342 1108.15 343.13C1125.06 375.05 1134.78 412.6 1134.78 452.79Z" fill="#6C63FF"/>
<g id="tree" opacity="0.2">
<path id="Vector" opacity="0.2" d="M680.28 664.03C680.248 665.109 680.124 666.182 679.91 667.24C672.95 666.133 665.95 665.133 658.91 664.24C658.91 663.96 658.91 663.67 658.91 663.38C658.975 660.381 659.838 657.454 661.41 654.9C663.47 651.64 666.6 649.6 670.05 649.71C673.5 649.82 676.49 652.05 678.34 655.42C679.739 658.067 680.409 661.039 680.28 664.03V664.03Z" fill="#3F3D56"/>
<path id="Vector_2" opacity="0.2" d="M680.854 646.942C681.099 639.208 676.509 632.787 670.602 632.601C664.696 632.414 659.709 638.532 659.465 646.266C659.221 653.999 663.811 660.42 669.717 660.607C675.624 660.793 680.61 654.675 680.854 646.942Z" fill="#3F3D56"/>
<path id="Vector_3" opacity="0.2" d="M681.4 629.821C681.644 622.088 677.054 615.667 671.148 615.48C665.241 615.294 660.255 621.412 660.011 629.145C659.766 636.879 664.356 643.3 670.263 643.486C676.169 643.673 681.156 637.555 681.4 629.821Z" fill="#3F3D56"/>
<path id="Vector_4" opacity="0.2" d="M681.936 612.701C682.18 604.967 677.59 598.547 671.684 598.36C665.777 598.173 660.791 604.291 660.546 612.025C660.302 619.759 664.892 626.179 670.798 626.366C676.705 626.553 681.691 620.435 681.936 612.701Z" fill="#3F3D56"/>
<path id="Vector_5" opacity="0.2" d="M682.471 595.58C682.716 587.847 678.126 581.426 672.219 581.239C666.313 581.053 661.326 587.171 661.082 594.904C660.838 602.638 665.428 609.059 671.334 609.245C677.241 609.432 682.227 603.314 682.471 595.58Z" fill="#3F3D56"/>
<path id="Vector_6" opacity="0.2" d="M635.38 476.79C633.972 474.883 632.702 472.878 631.58 470.79L659.84 467.06L629.42 466.33C626.705 459.891 625.333 452.966 625.386 445.978C625.439 438.99 626.917 432.087 629.73 425.69L669.85 448.14L633.1 419.3C636.807 413.304 641.711 408.136 647.505 404.121C653.299 400.105 659.859 397.327 666.775 395.96C673.691 394.593 680.814 394.667 687.701 396.177C694.587 397.688 701.087 400.601 706.797 404.736C712.506 408.872 717.302 414.14 720.884 420.212C724.466 426.284 726.757 433.029 727.615 440.026C728.473 447.023 727.879 454.122 725.871 460.88C723.862 467.637 720.481 473.908 715.94 479.3C718.13 482.266 719.991 485.461 721.49 488.83L684.4 506.63L723.73 494.8C726.207 502.972 726.606 511.634 724.891 519.999C723.177 528.365 719.402 536.171 713.91 542.71C719.62 550.457 723.035 559.655 723.763 569.252C724.492 578.849 722.506 588.457 718.031 596.977C713.556 605.498 706.773 612.587 698.459 617.435C690.145 622.283 680.634 624.692 671.015 624.389C661.395 624.086 652.055 621.082 644.063 615.72C636.07 610.358 629.748 602.856 625.819 594.07C621.89 585.284 620.512 575.57 621.844 566.038C623.176 556.507 627.163 547.542 633.35 540.17C626.528 530.911 623.016 519.628 623.379 508.134C623.742 496.639 627.958 485.6 635.35 476.79H635.38Z" fill="#6C63FF"/>
<path id="Vector_7" opacity="0.1" d="M725.91 511.37C725.56 522.871 721.331 533.916 713.91 542.71C719.62 550.457 723.035 559.655 723.763 569.252C724.492 578.849 722.506 588.457 718.031 596.977C713.556 605.498 706.773 612.587 698.459 617.435C690.145 622.283 680.634 624.692 671.015 624.389C661.395 624.086 652.055 621.082 644.063 615.72C636.07 610.358 629.748 602.856 625.819 594.07C621.89 585.284 620.512 575.57 621.844 566.038C623.176 556.507 627.163 547.542 633.35 540.17C626.78 531.24 726.09 505.62 725.91 511.37Z" fill="black"/>
</g>
<g id="tree_2" opacity="0.2">
<path id="Vector_8" opacity="0.2" d="M528.28 664.03C528.248 665.109 528.124 666.182 527.91 667.24C520.95 666.133 513.95 665.133 506.91 664.24C506.91 663.96 506.91 663.67 506.91 663.38C506.975 660.381 507.838 657.454 509.41 654.9C511.47 651.64 514.6 649.6 518.05 649.71C521.5 649.82 524.49 652.05 526.34 655.42C527.739 658.067 528.409 661.039 528.28 664.03V664.03Z" fill="#3F3D56"/>
<path id="Vector_9" opacity="0.2" d="M528.844 646.946C529.088 639.212 524.498 632.792 518.591 632.605C512.685 632.418 507.699 638.536 507.454 646.27C507.21 654.004 511.8 660.424 517.706 660.611C523.613 660.798 528.599 654.68 528.844 646.946Z" fill="#3F3D56"/>
<path id="Vector_10" opacity="0.2" d="M529.389 629.825C529.633 622.092 525.043 615.671 519.137 615.485C513.23 615.298 508.244 621.416 508 629.15C507.755 636.883 512.345 643.304 518.252 643.491C524.158 643.677 529.145 637.559 529.389 629.825Z" fill="#3F3D56"/>
<path id="Vector_11" opacity="0.2" d="M529.925 612.705C530.169 604.971 525.579 598.551 519.673 598.364C513.766 598.177 508.78 604.295 508.535 612.029C508.291 619.763 512.881 626.183 518.788 626.37C524.694 626.557 529.68 620.439 529.925 612.705Z" fill="#3F3D56"/>
<path id="Vector_12" opacity="0.2" d="M530.46 595.585C530.705 587.851 526.115 581.43 520.208 581.244C514.302 581.057 509.315 587.175 509.071 594.909C508.827 602.642 513.417 609.063 519.323 609.25C525.23 609.436 530.216 603.318 530.46 595.585Z" fill="#3F3D56"/>
<path id="Vector_13" opacity="0.2" d="M483.38 476.79C481.972 474.883 480.702 472.878 479.58 470.79L507.84 467.06L477.42 466.33C474.705 459.891 473.333 452.966 473.386 445.978C473.439 438.99 474.917 432.087 477.73 425.69L517.85 448.14L481.1 419.3C484.807 413.304 489.711 408.136 495.505 404.121C501.299 400.105 507.859 397.327 514.775 395.96C521.691 394.593 528.815 394.667 535.701 396.177C542.587 397.688 549.087 400.601 554.797 404.736C560.506 408.872 565.302 414.14 568.884 420.212C572.466 426.284 574.757 433.029 575.615 440.026C576.473 447.023 575.879 454.122 573.871 460.88C571.862 467.637 568.481 473.908 563.94 479.3C566.13 482.266 567.991 485.461 569.49 488.83L532.4 506.63L571.73 494.8C574.207 502.972 574.606 511.634 572.891 519.999C571.177 528.365 567.402 536.171 561.91 542.71C567.62 550.457 571.035 559.655 571.764 569.252C572.492 578.849 570.506 588.457 566.031 596.977C561.556 605.498 554.774 612.587 546.459 617.435C538.145 622.283 528.634 624.692 519.015 624.389C509.395 624.086 500.055 621.082 492.063 615.72C484.07 610.358 477.748 602.856 473.819 594.07C469.89 585.284 468.512 575.57 469.844 566.038C471.176 556.507 475.163 547.542 481.35 540.17C474.528 530.911 471.016 519.628 471.379 508.134C471.742 496.639 475.958 485.6 483.35 476.79H483.38Z" fill="#6C63FF"/>
<path id="Vector_14" opacity="0.1" d="M573.91 511.37C573.56 522.871 569.331 533.916 561.91 542.71C567.62 550.457 571.035 559.655 571.764 569.252C572.492 578.849 570.506 588.457 566.031 596.977C561.556 605.498 554.774 612.587 546.459 617.435C538.145 622.283 528.634 624.692 519.015 624.389C509.395 624.086 500.055 621.082 492.063 615.72C484.07 610.358 477.748 602.856 473.819 594.07C469.89 585.284 468.512 575.57 469.844 566.038C471.176 556.507 475.163 547.542 481.35 540.17C474.78 531.24 574.09 505.62 573.91 511.37Z" fill="black"/>
</g>
<g id="tree_3" opacity="0.2">
<path id="Vector_15" opacity="0.2" d="M943.48 674.97C943.404 677.013 943.16 679.047 942.75 681.05C929.35 678.91 915.853 676.997 902.26 675.31C902.26 674.77 902.26 674.22 902.26 673.66C902.387 667.885 904.051 662.248 907.08 657.33C911.08 651.06 917.08 647.13 923.71 647.33C930.34 647.53 936.11 651.84 939.71 658.33C942.425 663.442 943.726 669.187 943.48 674.97V674.97Z" fill="#3F3D56"/>
<path id="Vector_16" opacity="0.2" d="M944.568 642.047C945.039 627.153 936.197 614.789 924.821 614.429C913.444 614.07 903.839 625.851 903.369 640.745C902.898 655.638 911.739 668.003 923.116 668.362C934.493 668.722 944.097 656.94 944.568 642.047Z" fill="#3F3D56"/>
<path id="Vector_17" opacity="0.2" d="M945.607 609.086C946.078 594.193 937.237 581.828 925.86 581.468C914.483 581.109 904.879 592.891 904.408 607.784C903.937 622.677 912.779 635.042 924.156 635.402C935.532 635.761 945.137 623.979 945.607 609.086Z" fill="#3F3D56"/>
<path id="Vector_18" opacity="0.2" d="M946.657 576.126C947.127 561.233 938.286 548.868 926.909 548.508C915.532 548.149 905.928 559.931 905.457 574.824C904.987 589.717 913.828 602.082 925.205 602.441C936.582 602.801 946.186 591.019 946.657 576.126Z" fill="#3F3D56"/>
<path id="Vector_19" opacity="0.2" d="M946.524 541.665C946.971 526.765 938.106 514.409 926.723 514.067C915.34 513.726 905.751 525.528 905.304 540.429C904.857 555.33 913.722 567.686 925.104 568.027C936.487 568.369 946.077 556.566 946.524 541.665Z" fill="#3F3D56"/>
<path id="Vector_20" opacity="0.2" d="M857.03 314.51C854.332 310.839 851.889 306.987 849.72 302.98L904.12 295.8L845.57 294.39C840.34 281.995 837.694 268.663 837.794 255.21C837.894 241.757 840.737 228.466 846.15 216.15L923.4 259.36L852.66 203.84C859.813 192.324 869.26 182.405 880.415 174.7C891.569 166.995 904.19 161.671 917.493 159.058C930.795 156.445 944.493 156.599 957.733 159.512C970.973 162.425 983.471 168.034 994.448 175.988C1005.43 183.943 1014.65 194.073 1021.54 205.748C1028.43 217.423 1032.84 230.392 1034.5 243.846C1036.16 257.301 1035.03 270.953 1031.18 283.952C1027.33 296.95 1020.85 309.017 1012.13 319.4C1016.34 325.114 1019.93 331.267 1022.82 337.75L951.41 372.04L1027.12 349.24C1031.89 364.954 1032.67 381.611 1029.38 397.701C1026.09 413.791 1018.84 428.807 1008.29 441.39C1019.28 456.305 1025.85 474.012 1027.25 492.486C1028.66 510.96 1024.83 529.455 1016.21 545.857C1007.6 562.259 994.543 575.906 978.537 585.238C962.532 594.569 944.223 599.208 925.706 598.624C907.188 598.04 889.208 592.257 873.822 581.936C858.436 571.615 846.265 557.173 838.7 540.261C831.136 523.348 828.483 504.649 831.045 486.3C833.608 467.951 841.282 450.693 853.19 436.5C840.064 418.677 833.307 396.96 834.003 374.836C834.7 352.711 842.809 331.463 857.03 314.5V314.51Z" fill="#6C63FF"/>
<path id="Vector_21" opacity="0.1" d="M1031.33 381.07C1030.67 403.199 1022.57 424.459 1008.33 441.41C1019.32 456.325 1025.89 474.032 1027.29 492.506C1028.7 510.98 1024.87 529.475 1016.25 545.877C1007.64 562.279 994.583 575.926 978.577 585.258C962.572 594.589 944.263 599.228 925.746 598.644C907.228 598.06 889.248 592.277 873.862 581.956C858.476 571.635 846.305 557.193 838.74 540.281C831.176 523.368 828.523 504.669 831.085 486.32C833.648 467.971 841.322 450.713 853.23 436.52C840.49 419.31 1031.68 370 1031.33 381.07Z" fill="black"/>
</g>
<g id="house">
<path id="Vector_22" d="M157.82 676.73L168.31 676.7H183.1L201.8 372.92L386.99 63.89L378.94 55.25V33.37L178.66 365.76L157.82 676.73Z" fill="#F1C0C0"/>
<path id="Vector_23" d="M126.91 679.26L606.76 715.98L607.17 716.01L1071.56 687.45L1071.91 687.43V667.82L560.21 658.43L133.3 658.02H130.18L129.84 660.22L126.91 679.26Z" fill="#F1C0C0"/>
<path id="Vector_24" d="M378.88 54.84L590.43 281.9L583.89 681.3L601.86 683.47L602.16 683.51H620.13L622.28 299.05L1018.41 431.37L1025.09 666.97L1039.55 668.59L1044.45 669.14L1033.11 415.03L619.01 269.65L391.95 33.6H378.88V54.84Z" fill="#F1C0C0"/>
<path id="Vector_25" d="M621.42 451.99L766.71 480.6L766.76 480.61L1021.23 530.74L1032.88 526.07L1032.84 525.25L1032.08 509L621.57 426.05L621.42 451.99Z" fill="#F1C0C0"/>
<path id="Vector_26" d="M776.49 350.56L780.42 566.9L782.45 677.89L800.34 677.29L811.6 676.91L808.1 353.69L800.34 351.11L798.64 350.56H776.49Z" fill="#F1C0C0"/>
<path id="Vector_27" opacity="0.1" d="M766.76 480.61L1021.23 530.74L1032.88 526.07L1032.84 525.25L766.76 480.61Z" fill="black"/>
</g>
<g id="man">
<path id="man-left-hand" d="M405.91 398.11C405.443 396.69 405.17 395.213 405.1 393.72C405.1 390.72 406.47 387.9 407.85 385.22L396.42 386.77C395.04 386.96 393.5 387.24 392.72 388.39C392.424 388.96 392.269 389.593 392.269 390.235C392.269 390.877 392.424 391.51 392.72 392.08C393.293 393.221 393.749 394.417 394.08 395.65C394.106 396.729 394.23 397.803 394.45 398.86C394.806 399.636 395.304 400.338 395.92 400.93C399.19 404.55 401.64 408.82 404.08 413.05C404.01 412.93 410.97 407.54 410.69 405.78C410.53 404.78 408.52 403.58 407.88 402.62C406.996 401.227 406.332 399.705 405.91 398.11V398.11Z" fill="#BE6F72"/>
<g id="man-planche">
<path id="Vector_28" d="M503.91 359.04V368.89L335.24 401.79L326.49 407.09H296.3V401.54L462.02 361.5L503.91 359.04Z" fill="#F1C0C0"/>
</g>
<g id="man-bottom">
<path id="Vector_29" d="M368.49 638.66C366.611 636.384 364.016 634.811 361.129 634.197C358.242 633.584 355.233 633.965 352.59 635.28C352.024 635.546 351.526 635.936 351.13 636.42C350.13 637.82 350.77 639.75 350.86 641.48C351.09 645.7 347.73 649.13 344.71 652.08C343.09 653.66 341.44 655.35 340.71 657.5C339.98 659.65 340.52 662.38 342.48 663.5C343.335 663.929 344.266 664.187 345.22 664.26C348.416 664.884 351.694 664.975 354.92 664.53C358.11 663.92 361.24 662.11 362.62 659.17C362.886 658.373 363.327 657.645 363.91 657.04C365.67 655.65 368.37 657.28 370.37 656.29C372.02 655.47 372.09 654.18 372.11 652.48C372.17 647.78 371.47 642.46 368.49 638.66Z" fill="#E0FF63"/>
<path id="Vector_30" d="M392.49 638.48C393.72 641.72 393.89 645.25 394.05 648.71C394.14 650.71 394.2 652.85 393.12 654.54C392.04 656.23 389.93 657.12 387.91 657.54C383.74 658.4 378.91 657.59 376.22 654.28C374.16 651.75 373.73 648.28 374.11 645C374.43 642.31 375.11 639.16 373.18 637.25C372.68 636.74 372.03 636.38 371.57 635.83C370.57 634.61 370.73 632.77 371.27 631.27C371.973 629.835 372.5 628.321 372.84 626.76C372.92 626.02 386.38 627.28 387.62 627.89C389.31 628.72 389.05 630.11 389.56 631.79C390.27 634.13 391.63 636.24 392.49 638.48Z" fill="#E0FF63"/>
<path id="Vector_31" d="M394.96 494.82C397.6 496.53 398.62 499.89 399.03 503.01C400.16 511.56 398.18 520.2 398.03 528.83C397.89 540.92 401.39 553.23 398.4 564.94C396.61 571.94 398.13 579.94 396.45 587.01C395.95 589.11 395.03 591.09 394.55 593.19C393.55 597.74 394.6 602.5 396.01 606.95C396.46 608.149 396.746 609.404 396.86 610.68C396.792 612.644 396.294 614.57 395.4 616.32L389.4 630.51C388.73 632.1 386.09 632.36 384.4 632.57C381.22 632.95 377.67 633.22 375.14 631.25C372.61 629.28 372 625.98 371.61 622.9C370.862 616.987 370.528 611.029 370.61 605.07C370.72 603.515 370.582 601.952 370.2 600.44C369.65 598.73 368.44 597.25 368.11 595.44C367.69 593.1 368.88 590.8 369.32 588.44C369.622 586.284 369.588 584.095 369.22 581.95C368.83 578.75 368.38 575.55 367.87 572.37C367.15 567.92 368.18 563.53 368.87 559.07C369.52 554.88 368.69 550.61 367.87 546.45C367.941 549.826 367.52 553.195 366.62 556.45C366.09 558.04 365.33 559.56 364.87 561.18C362.82 568.45 367.19 576.08 366.57 583.61C366.28 587.13 364.9 590.61 365.29 594.08C365.56 596.62 366.74 598.95 367.55 601.37C368.36 603.79 368.78 606.56 367.55 608.82C364.3 614.96 366.73 623.31 369.64 629.61C370.231 630.727 370.745 631.883 371.18 633.07C372.04 635.91 371.32 638.96 371.55 641.92C370.713 642.057 369.855 642.001 369.042 641.757C368.229 641.513 367.483 641.086 366.86 640.51C366.42 640.05 366.06 639.51 365.63 639.03C364.429 637.885 363.006 636.997 361.45 636.42C360.536 635.909 359.495 635.669 358.45 635.73C357.351 636.037 356.362 636.651 355.6 637.5C354.611 638.37 353.562 639.168 352.46 639.89C351.991 640.251 351.442 640.494 350.86 640.6C350.567 640.645 350.268 640.597 350.004 640.463C349.74 640.328 349.525 640.114 349.39 639.85C349.328 639.683 349.29 639.508 349.28 639.33C348.909 636.311 348.712 633.272 348.69 630.23C348.69 625 342.43 621.4 341.64 616.23C341.01 612.06 342.18 607.81 341.79 603.61C341.6 601.45 341 599.33 341.04 597.17C341.04 595.77 341.36 594.4 341.47 593.01C341.562 591.467 341.538 589.919 341.4 588.38L341.09 583.55C340.79 578.78 340.46 573.91 338.58 569.55C336.351 564.459 335.031 559.017 334.68 553.47C334.48 549.97 334.61 546.47 334.21 542.96C333.85 539.79 333.05 536.64 333.28 533.46C333.47 531 334.28 528.62 334.47 526.16C334.86 521.43 333.06 516.83 331.65 512.3C330.24 507.77 329.2 502.75 331.05 498.38C331.314 497.663 331.754 497.023 332.33 496.52C333.039 496.051 333.847 495.75 334.69 495.64C351.847 492.036 369.434 490.914 386.91 492.31C389.759 492.472 392.524 493.334 394.96 494.82Z" fill="#3F3D56"/>
</g>
<g id="man-head">
<path id="Vector_32" d="M338.19 388.61C347.038 388.61 354.21 381.438 354.21 372.59C354.21 363.742 347.038 356.57 338.19 356.57C329.342 356.57 322.17 363.742 322.17 372.59C322.17 381.438 329.342 388.61 338.19 388.61Z" fill="#BE6F72"/>
<path id="Vector_33" d="M335.09 392.6C335.32 393.516 335.32 394.474 335.09 395.39C334.838 396.03 334.483 396.624 334.04 397.15C332.489 399.15 330.773 401.017 328.91 402.73C329.859 404.85 331.568 406.538 333.7 407.46C335.817 408.361 338.037 408.996 340.31 409.35C341.445 409.648 342.625 409.73 343.79 409.59C344.863 409.32 345.88 408.86 346.79 408.23L355.69 402.9C357.033 402.173 358.276 401.275 359.39 400.23C361.022 398.552 361.946 396.311 361.97 393.97C362.011 393.551 361.898 393.131 361.65 392.79C361.309 392.493 360.881 392.314 360.43 392.28C357.3 391.59 354.83 389.05 353.43 386.17C352.164 383.218 351.345 380.093 351 376.9L341.51 381.9C340.1 382.65 338.7 383.4 337.24 384.05C336.31 384.47 334.43 384.82 333.77 385.67C332.51 387.24 334.76 390.71 335.09 392.6Z" fill="#BE6F72"/>
</g>
<g id="man-pull">
<path id="Vector_34" d="M411.26 406.81C412.31 407.38 413.313 408.032 414.26 408.76C415.38 409.741 416.387 410.844 417.26 412.05C421.55 417.6 425.51 424.05 425.09 431.05C425.099 432.068 424.907 433.079 424.524 434.023C424.141 434.966 423.576 435.825 422.86 436.55C421.09 438.06 418.55 438.13 416.23 438.13C413.71 438.13 411.06 438.13 408.88 436.83C406.7 435.53 404.88 433 402.3 433.06C401.936 433.12 401.564 433.12 401.2 433.06C400.31 432.77 400.13 431.6 399.55 430.86C398.55 429.53 396.44 429.86 394.87 430.44C393.3 431.02 391.56 431.89 390.01 431.22C389.11 430.745 388.375 430.01 387.9 429.11C384.19 423.11 383.4 415.9 382.7 408.93C382.27 404.69 378.99 390.23 388.04 393.52C392.04 394.96 395.78 397.84 399.42 399.95L411.26 406.81Z" fill="#3F3D56"/>
<path id="Vector_35" d="M402.32 408.24C403.128 408.821 404.108 409.116 405.103 409.076C406.098 409.036 407.051 408.664 407.81 408.02C409.299 406.674 410.248 404.833 410.48 402.84C411.48 402.53 411.99 403.84 412.63 404.64C413.75 406 416.03 405.98 417.05 407.43C417.76 408.43 417.6 409.82 418.1 410.95C418.75 412.41 420.36 413.17 421.46 414.35C422.499 415.639 423.249 417.136 423.66 418.74L425.3 423.66C426.085 425.706 426.589 427.849 426.8 430.03C426.903 431.12 426.789 432.22 426.462 433.266C426.136 434.312 425.605 435.282 424.9 436.12C422.7 438.49 419.09 438.74 415.9 438.67C414.835 438.693 413.771 438.568 412.74 438.3C409.91 437.42 408.1 434.57 407.35 431.7C406.6 428.83 406.68 425.82 406.24 422.88C405.765 419.992 404.925 417.176 403.74 414.5C402.86 412.42 400.44 409.32 400.48 407.11C401.2 407.11 401.72 407.77 402.32 408.24Z" fill="#3F3D56"/>
<path id="Vector_36" d="M328.97 399.82C327.619 400.928 326.564 402.354 325.9 403.97C325.28 405.97 325.9 408.08 326.46 410.06C329.085 418.499 331.09 427.119 332.46 435.85C333.3 441.85 333.61 447.94 334.02 454.01C334.86 466.39 336.08 486.13 337.71 498.43C343.71 498.7 349.56 496.95 355.51 496.31C366.63 495.13 378.08 497.83 388.97 495.31C386.33 484.88 383.69 467.07 381.05 456.65C379.882 452.545 379.072 448.345 378.63 444.1C378.4 441.05 378.54 437.99 378.58 434.92C378.67 428.92 378.34 422.92 378.01 416.92C377.63 409.92 377.25 402.92 375.59 396.07C375.474 395.197 375.065 394.39 374.43 393.78C373.43 393.05 372.13 393.31 370.94 393.47C367.296 393.933 363.608 393.059 360.56 391.01C359.24 390.11 357.47 389.01 356.24 390.01C355.715 390.613 355.369 391.351 355.24 392.14C354.696 393.555 353.856 394.837 352.776 395.901C351.697 396.965 350.402 397.786 348.98 398.31C346.13 399.342 343.146 399.955 340.12 400.13C339.194 400.329 338.228 400.22 337.37 399.82C335.95 398.95 335.85 395.82 334.06 395.61C332.49 395.43 330.03 398.81 328.97 399.82Z" fill="#3F3D56"/>
<path id="Vector_37" d="M352.63 424.24C348.94 420.71 347.32 415.59 344.63 411.24C342.798 408.315 340.458 405.741 337.72 403.64C336.344 402.731 335.081 401.66 333.96 400.45C333.01 399.28 332.29 397.72 330.85 397.27C330.255 397.141 329.637 397.158 329.05 397.32C328.463 397.482 327.924 397.784 327.48 398.2C326.598 399.04 325.764 399.928 324.98 400.86C320.74 405.25 313.29 405.86 309.93 410.94C309.024 412.017 308.407 413.308 308.14 414.69C307.173 422.084 309.084 429.566 313.48 435.59C314.331 436.986 315.638 438.046 317.18 438.59C316.971 440.455 317.218 442.342 317.9 444.09C319.752 450.419 322.027 456.616 324.71 462.64C324.068 464.996 323.62 467.401 323.37 469.83C322.67 475.94 323.32 482.14 322.66 488.26C322.12 493.26 320.66 498.13 320.61 503.14C320.61 503.94 320.68 504.89 321.37 505.3C321.737 505.489 322.148 505.575 322.56 505.55L334.86 505.92C342 506.13 349.21 506.34 356.24 505.02C357.176 504.881 358.084 504.595 358.93 504.17C361.31 502.84 362.1 499.84 362.48 497.17C362.976 493.707 363.174 490.207 363.07 486.71C364.56 491.42 366.33 496.29 370.83 498.33C373.21 499.41 375.93 499.33 378.54 499.26C384.165 499.009 389.772 498.432 395.33 497.53C395.673 497.573 396.02 497.534 396.345 497.418C396.67 497.302 396.964 497.112 397.202 496.862C397.44 496.612 397.616 496.31 397.717 495.98C397.817 495.649 397.839 495.3 397.78 494.96L397.84 489.5C397.96 478.41 395.21 467.81 394.14 456.77C393.8 453.29 393.83 449.77 392.98 446.36C392.63 444.93 392.12 443.53 391.81 442.09C391.543 440.68 391.376 439.253 391.31 437.82L390.53 426.82C390.16 421.73 389.63 416.82 389.24 411.74C389.026 406.793 388.309 401.881 387.1 397.08C386.23 394.08 384.42 390.68 381.29 390.31C379.62 390.12 378 390.85 376.41 391.36C372.502 392.59 368.308 392.573 364.41 391.31C363.206 390.834 361.951 390.499 360.67 390.31C360.025 390.222 359.369 390.307 358.768 390.557C358.167 390.807 357.643 391.211 357.25 391.73C356.862 392.511 356.68 393.379 356.72 394.25C356.25 404.24 355.38 414.53 352.63 424.24Z" fill="#E0FF63"/>
<path id="Vector_38" d="M336.54 424.54C331.93 419.68 327.2 414.73 321.26 411.64C318.92 410.42 316.26 409.5 313.67 409.96C311.08 410.42 308.67 412.67 308.79 415.3C308.87 416.93 309.86 418.37 310.17 419.97C310.53 421.77 310.01 423.69 310.57 425.43C311.025 426.577 311.705 427.62 312.57 428.5L319.65 436.89C322.65 440.39 325.65 443.94 329.51 446.36C333.37 448.78 338.37 449.91 342.61 448.19C345.627 446.788 348.135 444.486 349.79 441.6C351.55 438.8 352.79 435.74 354.44 432.85C357.008 428.232 360.397 424.122 364.44 420.72C362.36 420.18 359.75 419.42 358.44 417.72C358.067 417.18 357.749 416.603 357.49 416L355.87 412.5C355.319 412.471 354.768 412.557 354.252 412.751C353.736 412.946 353.265 413.245 352.87 413.63C352.175 414.433 351.43 415.191 350.64 415.9C349.23 416.96 347.32 417.25 346.04 418.46C345.545 418.979 345.096 419.542 344.7 420.14C343.732 421.412 342.503 422.463 341.096 423.222C339.688 423.981 338.135 424.43 336.54 424.54Z" fill="#3F3D56"/>
<path id="Vector_39" d="M330.74 420.24C331.34 420.61 332.08 421.03 332.74 420.72C333.01 420.557 333.239 420.335 333.41 420.07C334.553 418.544 335.507 416.886 336.25 415.13C336.378 414.882 336.45 414.609 336.46 414.33C336.46 413.69 335.89 413.22 335.36 412.85C332.52 411.04 329.467 409.589 326.27 408.53C323.63 407.53 320.87 406.66 318.07 406.91C317.018 406.981 315.991 407.263 315.051 407.741C314.111 408.219 313.277 408.882 312.6 409.69C310.6 412.26 313.95 413.04 316.05 413.97C320.91 416.18 326.17 417.46 330.74 420.24Z" fill="#E0FF63"/>
</g>
<g id="man-top">
<path id="Vector_40" d="M323.77 374.97C326.31 372.9 324.84 368.56 326.56 365.78C327.56 364.26 329.25 363.46 330.91 362.78C332.913 361.843 335.06 361.248 337.26 361.02C338.362 360.914 339.473 361.058 340.512 361.44C341.551 361.823 342.49 362.435 343.26 363.23C343.91 363.97 344.35 364.87 344.96 365.64C345.715 366.538 346.7 367.215 347.809 367.599C348.918 367.983 350.111 368.059 351.26 367.82C352.59 367.52 353.97 366.51 353.88 365.15C353.73 364.323 353.307 363.57 352.68 363.01L349.82 359.84C346.57 356.24 342.96 352.42 338.19 351.52C334.87 350.89 331.47 351.78 328.27 352.85C326.98 353.28 325.53 353.92 325.17 355.23C324.93 356.13 325.29 357.11 325.08 358.02C324.67 359.83 322.35 360.44 321.27 361.96C320.19 363.48 320.52 365.28 320.21 366.96C319.9 368.64 319 370.28 318.89 372.02C318.82 373.07 319.35 375.02 320.53 375.4C321.71 375.78 323.04 373.72 323.77 374.97Z" fill="#3F3D56"/>
<path id="Vector_41" d="M352.91 363.71C352.067 359.31 350.249 355.155 347.59 351.55C345.226 348.181 341.937 345.57 338.12 344.03C336.212 343.284 334.16 342.981 332.118 343.142C330.076 343.303 328.097 343.925 326.33 344.96C323.706 346.833 321.665 349.408 320.44 352.39C317.85 357.97 316.89 364.79 319.9 370.15C321.1 368.69 323.16 369.35 324.98 368.82C327.26 368.17 329.19 366.65 331.36 365.7C337.91 362.81 345.91 365.15 352.91 363.71Z" fill="#E0FF63"/>
</g>
<path id="man-right-hand" d="M364.81 403.63C368.28 397.3 368.12 389.71 369.11 382.56C369.217 380.666 369.882 378.847 371.02 377.33C373.02 375.07 376.55 375.04 379.57 375.33C380.46 375.43 381.57 375.85 381.52 376.74C381.45 377.059 381.294 377.353 381.07 377.59C378.143 381.368 376.421 385.94 376.13 390.71C377.7 391.8 380.13 389.56 381.64 390.71C382.64 391.55 382.18 393.21 381.58 394.41C380.187 397.19 378.75 399.95 377.27 402.69C376.089 405.105 374.548 407.327 372.7 409.28C371.43 410.5 369.94 411.46 368.65 412.66C365.65 415.47 363.84 419.44 360.74 422.18C360.478 422.464 360.123 422.645 359.74 422.69C359.346 422.662 358.974 422.495 358.69 422.22C357.141 420.96 355.857 419.407 354.91 417.65C353.73 415.47 353.91 414.83 355.77 413.29C359.25 410.54 362.64 407.59 364.81 403.63Z" fill="#BE6F72"/>
</g>
</g>
</g>
<defs>
<clipPath id="clip0">
<rect width="1177.82" height="724.47" fill="white"/>
</clipPath>
</defs>
</svg>
