<svg width="1178" height="725" viewBox="0 0 1178 725" fill="none" xmlns="http://www.w3.org/2000/svg">
<rect width="1178" height="725" fill="white"/>
<g id="undraw_under_construction_46pa 1">
<g clip-path="url(#clip0)">
<path id="cloud" opacity="0.05" d="M1165 461.531C1165.02 480.958 1162.65 500.315 1157.93 519.173C1156.34 525.527 1154.5 531.749 1152.4 537.839C1149.83 545.356 1146.85 552.731 1143.48 559.93C1141.78 563.572 1139.98 567.142 1138.09 570.639C1138.12 590.56 1133.97 610.272 1125.91 628.528C1111.35 661.282 1085.37 687.767 1052.72 703.154C1032.31 712.792 1010 717.861 987.386 718H210.64C176.081 718.072 142.119 709.088 112.207 691.96L111.747 691.702C107.486 689.235 103.332 686.622 99.2852 683.864C90.1791 677.638 81.6239 670.659 73.7118 663C63.0027 652.644 53.5662 641.073 45.598 628.528C26.8833 599.121 16.9693 565.07 17.0041 530.317C-1.9485 497.409 -13 457.988 -13 415.628C-13 362.182 4.56238 313.428 33.4163 276.521C39.4318 268.81 46.021 261.555 53.129 254.816C60.1423 248.148 67.6804 242.042 75.672 236.556C82.0659 232.162 88.7482 228.194 95.6747 224.679C98.5651 223.224 101.466 221.848 104.416 220.572C107.006 219.434 109.627 218.375 112.277 217.375C115.457 216.181 118.678 215.082 121.938 214.079C125.199 213.076 128.416 212.199 131.59 211.446C136.257 210.318 141.004 209.401 145.832 208.695C149.832 208.111 153.833 207.705 157.833 207.398C161.014 207.161 164.224 207.032 167.454 206.993H169.205C172.765 206.993 176.306 207.131 179.816 207.369C180.186 206.636 180.586 205.894 180.956 205.172C182.356 202.529 183.807 199.896 185.267 197.323C185.264 197.3 185.264 197.277 185.267 197.254C185.517 196.798 185.767 196.353 186.027 195.918C187.207 193.809 188.437 191.721 189.698 189.653C190.278 188.663 190.848 187.733 191.438 186.802C191.563 186.571 191.699 186.346 191.848 186.129C192.448 185.139 193.058 184.15 193.678 183.16C196.765 178.277 199.976 173.48 203.309 168.769L204.159 167.562C204.68 166.829 205.16 166.117 205.74 165.384C207.12 163.474 208.54 161.554 209.97 159.674C210.97 158.328 211.971 156.992 213.051 155.715C215.651 152.416 218.318 149.117 221.052 145.818C223.785 142.518 226.626 139.262 229.573 136.049C229.973 135.604 230.373 135.168 230.793 134.733L235.064 130.12C235.274 129.903 235.454 129.705 235.654 129.507C236.164 128.962 236.654 128.418 237.204 127.894C239.494 125.488 241.845 123.133 244.205 120.787C256.217 108.948 269.014 97.914 282.51 87.76C283.04 87.3443 283.58 86.9484 284.11 86.5526C286.651 84.6622 289.231 82.7916 291.811 80.9507C306.004 70.8747 320.841 61.7172 336.227 53.5352C337.288 52.9315 338.368 52.3673 339.458 51.8131C353.252 44.5911 367.439 38.1283 381.954 32.454C389.865 29.3561 397.956 26.4463 406.097 23.784C411.518 22.0222 416.958 20.3496 422.469 18.7759C431.084 16.3214 439.758 14.1209 448.493 12.1744C474.225 6.46059 500.404 2.93094 526.743 1.62393C534.744 1.22144 542.835 1.0136 551.017 1.0004C590.492 0.948686 629.813 5.87092 668.032 15.6484C668.427 16.2393 668.968 16.7211 669.603 17.0483C670.238 17.3756 670.947 17.5375 671.663 17.519H675.023C676.484 17.9149 677.934 18.3108 679.394 18.7264C687.548 21.049 695.586 23.586 703.507 26.3375L705.507 27.0501C725.058 33.9296 744.08 42.1989 762.425 51.7933C778.962 60.4213 794.885 70.1564 810.082 80.9309C812.422 82.5936 814.729 84.2696 817.003 85.9587C819.763 84.2102 822.57 82.5343 825.424 80.9309C836.444 74.7197 848.149 69.7816 860.308 66.2136C885.73 58.7691 912.628 57.728 938.559 63.1851C971.814 70.1626 1001.92 87.4829 1026.23 112.117C1036.13 122.197 1044.94 133.269 1052.52 145.154C1053.07 146.006 1053.62 146.867 1054.15 147.738C1060.67 158.257 1066.27 169.306 1070.9 180.765C1071.07 181.19 1071.24 181.586 1071.39 182.002C1075.66 192.732 1079.1 203.766 1081.69 215.009C1081.81 215.583 1081.95 216.148 1082.07 216.722C1084.49 227.603 1086.13 238.639 1086.99 249.749C1086.99 250.145 1086.99 250.551 1087.07 250.966C1087.49 256.713 1087.7 262.52 1087.71 268.386C1087.71 273.631 1087.53 278.837 1087.2 284.003C1087.2 284.568 1087.12 285.152 1087.07 285.736C1086.98 287.23 1086.85 288.705 1086.72 290.209C1094.36 296.306 1101.51 302.981 1108.1 310.172C1111.02 313.319 1113.84 316.585 1116.56 319.97C1124.87 330.272 1132.17 341.331 1138.37 352.997C1155.28 384.59 1165 421.754 1165 461.531Z" fill="#403F3F"/>
<g id="trees">
<g id="tree" opacity="0.3">
<path id="Vector" opacity="0.2" d="M680.28 664.03C680.248 665.109 680.124 666.182 679.91 667.24C672.95 666.133 665.95 665.133 658.91 664.24C658.91 663.96 658.91 663.67 658.91 663.38C658.975 660.381 659.838 657.454 661.41 654.9C663.47 651.64 666.6 649.6 670.05 649.71C673.5 649.82 676.49 652.05 678.34 655.42C679.739 658.067 680.409 661.039 680.28 664.03V664.03Z" fill="#B4CD93"/>
<path id="Vector_2" opacity="0.2" d="M680.854 646.942C681.099 639.208 676.509 632.787 670.602 632.601C664.696 632.414 659.709 638.532 659.465 646.266C659.221 653.999 663.811 660.42 669.717 660.607C675.624 660.793 680.61 654.675 680.854 646.942Z" fill="#B4CD93"/>
<path id="Vector_3" opacity="0.2" d="M681.4 629.821C681.644 622.088 677.054 615.667 671.148 615.48C665.241 615.294 660.255 621.412 660.011 629.145C659.766 636.879 664.356 643.3 670.263 643.486C676.169 643.673 681.156 637.555 681.4 629.821Z" fill="#B4CD93"/>
<path id="Vector_4" opacity="0.2" d="M681.936 612.701C682.18 604.967 677.59 598.547 671.684 598.36C665.777 598.173 660.791 604.291 660.546 612.025C660.302 619.759 664.892 626.179 670.798 626.366C676.705 626.553 681.691 620.435 681.936 612.701Z" fill="#B4CD93"/>
<path id="Vector_5" opacity="0.2" d="M682.471 595.58C682.716 587.847 678.126 581.426 672.219 581.239C666.313 581.053 661.326 587.171 661.082 594.904C660.838 602.638 665.428 609.059 671.334 609.245C677.241 609.432 682.227 603.314 682.471 595.58Z" fill="#B4CD93"/>
<path id="Vector_6" opacity="0.2" d="M635.38 476.79C633.972 474.883 632.702 472.878 631.58 470.79L659.84 467.06L629.42 466.33C626.705 459.891 625.333 452.966 625.386 445.978C625.439 438.99 626.917 432.087 629.73 425.69L669.85 448.14L633.1 419.3C636.807 413.304 641.711 408.136 647.505 404.121C653.299 400.105 659.859 397.327 666.775 395.96C673.691 394.593 680.814 394.667 687.701 396.177C694.587 397.688 701.087 400.601 706.797 404.736C712.506 408.872 717.302 414.14 720.884 420.212C724.466 426.284 726.757 433.029 727.615 440.026C728.473 447.023 727.879 454.122 725.871 460.88C723.862 467.637 720.481 473.908 715.94 479.3C718.13 482.266 719.991 485.461 721.49 488.83L684.4 506.63L723.73 494.8C726.207 502.972 726.606 511.634 724.891 519.999C723.177 528.365 719.402 536.171 713.91 542.71C719.62 550.457 723.035 559.655 723.763 569.252C724.492 578.849 722.506 588.457 718.031 596.977C713.556 605.498 706.773 612.587 698.459 617.435C690.145 622.283 680.634 624.692 671.015 624.389C661.395 624.086 652.055 621.082 644.063 615.72C636.07 610.358 629.748 602.856 625.819 594.07C621.89 585.284 620.512 575.57 621.844 566.038C623.176 556.507 627.163 547.542 633.35 540.17C626.528 530.911 623.016 519.628 623.379 508.134C623.742 496.639 627.958 485.6 635.35 476.79H635.38Z" fill="#427A5B"/>
<path id="Vector_7" opacity="0.1" d="M725.91 511.37C725.56 522.871 721.331 533.916 713.91 542.71C719.62 550.457 723.035 559.655 723.763 569.252C724.492 578.849 722.506 588.457 718.031 596.977C713.556 605.498 706.773 612.587 698.459 617.435C690.145 622.283 680.634 624.692 671.015 624.389C661.395 624.086 652.055 621.082 644.063 615.72C636.07 610.358 629.748 602.856 625.819 594.07C621.89 585.284 620.512 575.57 621.844 566.038C623.176 556.507 627.163 547.542 633.35 540.17C626.78 531.24 726.09 505.62 725.91 511.37Z" fill="#427A5B"/>
</g>
<g id="tree_2" opacity="0.3">
<path id="Vector_8" opacity="0.2" d="M528.28 664.03C528.248 665.109 528.124 666.182 527.91 667.24C520.95 666.133 513.95 665.133 506.91 664.24C506.91 663.96 506.91 663.67 506.91 663.38C506.975 660.381 507.838 657.454 509.41 654.9C511.47 651.64 514.6 649.6 518.05 649.71C521.5 649.82 524.49 652.05 526.34 655.42C527.739 658.067 528.409 661.039 528.28 664.03V664.03Z" fill="#B4CD93"/>
<path id="Vector_9" opacity="0.2" d="M528.844 646.946C529.088 639.212 524.498 632.792 518.591 632.605C512.685 632.418 507.699 638.536 507.454 646.27C507.21 654.004 511.8 660.424 517.706 660.611C523.613 660.798 528.599 654.68 528.844 646.946Z" fill="#B4CD93"/>
<path id="Vector_10" opacity="0.2" d="M529.389 629.825C529.633 622.092 525.043 615.671 519.137 615.485C513.23 615.298 508.244 621.416 508 629.15C507.755 636.883 512.345 643.304 518.252 643.491C524.158 643.677 529.145 637.559 529.389 629.825Z" fill="#B4CD93"/>
<path id="Vector_11" opacity="0.2" d="M529.925 612.705C530.169 604.971 525.579 598.551 519.673 598.364C513.766 598.177 508.78 604.295 508.535 612.029C508.291 619.763 512.881 626.183 518.788 626.37C524.694 626.557 529.68 620.439 529.925 612.705Z" fill="#B4CD93"/>
<path id="Vector_12" opacity="0.2" d="M530.46 595.585C530.705 587.851 526.115 581.43 520.208 581.244C514.302 581.057 509.315 587.175 509.071 594.909C508.827 602.642 513.417 609.063 519.323 609.25C525.23 609.436 530.216 603.318 530.46 595.585Z" fill="#B4CD93"/>
<path id="Vector_13" opacity="0.2" d="M483.38 476.79C481.972 474.883 480.702 472.878 479.58 470.79L507.84 467.06L477.42 466.33C474.705 459.891 473.333 452.966 473.386 445.978C473.439 438.99 474.917 432.087 477.73 425.69L517.85 448.14L481.1 419.3C484.807 413.304 489.711 408.136 495.505 404.121C501.299 400.105 507.859 397.327 514.775 395.96C521.691 394.593 528.815 394.667 535.701 396.177C542.587 397.688 549.087 400.601 554.797 404.736C560.506 408.872 565.302 414.14 568.884 420.212C572.466 426.284 574.757 433.029 575.615 440.026C576.473 447.023 575.879 454.122 573.871 460.88C571.862 467.637 568.481 473.908 563.94 479.3C566.13 482.266 567.991 485.461 569.49 488.83L532.4 506.63L571.73 494.8C574.207 502.972 574.606 511.634 572.891 519.999C571.177 528.365 567.402 536.171 561.91 542.71C567.62 550.457 571.035 559.655 571.764 569.252C572.492 578.849 570.506 588.457 566.031 596.977C561.556 605.498 554.774 612.587 546.459 617.435C538.145 622.283 528.634 624.692 519.015 624.389C509.395 624.086 500.055 621.082 492.063 615.72C484.07 610.358 477.748 602.856 473.819 594.07C469.89 585.284 468.512 575.57 469.844 566.038C471.176 556.507 475.163 547.542 481.35 540.17C474.528 530.911 471.016 519.628 471.379 508.134C471.742 496.639 475.958 485.6 483.35 476.79H483.38Z" fill="#427A5B"/>
<path id="Vector_14" opacity="0.1" d="M573.91 511.37C573.56 522.871 569.331 533.916 561.91 542.71C567.62 550.457 571.035 559.655 571.764 569.252C572.492 578.849 570.506 588.457 566.031 596.977C561.556 605.498 554.774 612.587 546.459 617.435C538.145 622.283 528.634 624.692 519.015 624.389C509.395 624.086 500.055 621.082 492.063 615.72C484.07 610.358 477.748 602.856 473.819 594.07C469.89 585.284 468.512 575.57 469.844 566.038C471.176 556.507 475.163 547.542 481.35 540.17C474.78 531.24 574.09 505.62 573.91 511.37Z" fill="#B4CD93"/>
</g>
<g id="tree_3" opacity="0.3">
<path id="Vector_15" opacity="0.2" d="M943.48 674.97C943.404 677.013 943.16 679.047 942.75 681.05C929.35 678.91 915.853 676.997 902.26 675.31C902.26 674.77 902.26 674.22 902.26 673.66C902.387 667.885 904.051 662.248 907.08 657.33C911.08 651.06 917.08 647.13 923.71 647.33C930.34 647.53 936.11 651.84 939.71 658.33C942.425 663.442 943.726 669.187 943.48 674.97V674.97Z" fill="#B4CD93"/>
<path id="Vector_16" opacity="0.2" d="M944.568 642.047C945.039 627.153 936.197 614.789 924.821 614.429C913.444 614.07 903.839 625.851 903.369 640.745C902.898 655.638 911.739 668.003 923.116 668.362C934.493 668.722 944.097 656.94 944.568 642.047Z" fill="#B4CD93"/>
<path id="Vector_17" opacity="0.2" d="M945.607 609.086C946.078 594.193 937.237 581.828 925.86 581.468C914.483 581.109 904.879 592.891 904.408 607.784C903.937 622.677 912.779 635.042 924.156 635.402C935.532 635.761 945.137 623.979 945.607 609.086Z" fill="#B4CD93"/>
<path id="Vector_18" opacity="0.2" d="M946.657 576.126C947.127 561.233 938.286 548.868 926.909 548.508C915.532 548.149 905.928 559.931 905.457 574.824C904.987 589.717 913.828 602.082 925.205 602.441C936.582 602.801 946.186 591.019 946.657 576.126Z" fill="#B4CD93"/>
<path id="Vector_19" opacity="0.2" d="M946.524 541.665C946.971 526.765 938.106 514.409 926.723 514.067C915.34 513.726 905.751 525.528 905.304 540.429C904.857 555.33 913.722 567.686 925.104 568.027C936.487 568.369 946.077 556.566 946.524 541.665Z" fill="#B4CD93"/>
<path id="Vector_20" opacity="0.2" d="M857.03 314.51C854.332 310.839 851.889 306.987 849.72 302.98L904.12 295.8L845.57 294.39C840.34 281.995 837.694 268.663 837.794 255.21C837.894 241.757 840.737 228.466 846.15 216.15L923.4 259.36L852.66 203.84C859.813 192.324 869.26 182.405 880.415 174.7C891.569 166.995 904.19 161.671 917.493 159.058C930.795 156.445 944.493 156.599 957.733 159.512C970.973 162.425 983.471 168.034 994.448 175.988C1005.43 183.943 1014.65 194.073 1021.54 205.748C1028.43 217.423 1032.84 230.392 1034.5 243.846C1036.16 257.301 1035.03 270.953 1031.18 283.952C1027.33 296.95 1020.85 309.017 1012.13 319.4C1016.34 325.114 1019.93 331.267 1022.82 337.75L951.41 372.04L1027.12 349.24C1031.89 364.954 1032.67 381.611 1029.38 397.701C1026.09 413.791 1018.84 428.807 1008.29 441.39C1019.28 456.305 1025.85 474.012 1027.25 492.486C1028.66 510.96 1024.83 529.455 1016.21 545.857C1007.6 562.259 994.543 575.906 978.537 585.238C962.532 594.569 944.223 599.208 925.706 598.624C907.188 598.04 889.208 592.257 873.822 581.936C858.436 571.615 846.265 557.173 838.7 540.261C831.136 523.348 828.483 504.649 831.045 486.3C833.608 467.951 841.282 450.693 853.19 436.5C840.064 418.677 833.307 396.96 834.003 374.836C834.7 352.711 842.809 331.463 857.03 314.5V314.51Z" fill="#427A5B"/>
<path id="Vector_21" opacity="0.1" d="M1031.33 381.07C1030.67 403.199 1022.57 424.459 1008.33 441.41C1019.32 456.325 1025.89 474.032 1027.29 492.506C1028.7 510.98 1024.87 529.475 1016.25 545.877C1007.64 562.279 994.583 575.926 978.577 585.258C962.572 594.589 944.263 599.228 925.746 598.644C907.228 598.06 889.248 592.277 873.862 581.956C858.476 571.635 846.305 557.193 838.74 540.281C831.176 523.368 828.523 504.669 831.085 486.32C833.648 467.971 841.322 450.713 853.23 436.52C840.49 419.31 1031.68 370 1031.33 381.07Z" fill="#427A5B"/>
</g>
</g>
<g id="house" opacity="0.7">
<path id="Vector_22" d="M157.82 676.73L168.31 676.7H183.1L201.8 372.92L386.99 63.89L378.94 55.25V33.37L178.66 365.76L157.82 676.73Z" fill="#403F3F"/>
<path id="Vector_23" d="M126.91 679.26L607.17 687.45H1071.56L1071.91 687.43V667.82L560.21 658.43L133.3 658.02H130.18L129.84 660.22L126.91 679.26Z" fill="#403F3F"/>
<path id="Vector_24" d="M378.88 54.84L590.43 281.9L583.89 681.3L601.86 683.47L602.16 683.51H620.13L622.28 299.05L1018.41 431.37L1025.09 666.97L1039.55 668.59L1044.45 669.14L1033.11 415.03L619.01 269.65L391.95 33.6H378.88V54.84Z" fill="#403F3F"/>
<path id="Vector_25" d="M621.42 451.99L766.71 480.6L766.76 480.61L1021.23 530.74L1032.88 526.07L1032.84 525.25L1032.08 509L621.57 426.05L621.42 451.99Z" fill="#403F3F"/>
<path id="Vector_26" d="M776.49 350.56L780.42 566.9L782.45 677.89L800.34 677.29L811.6 676.91L808.1 353.69L800.34 351.11L798.64 350.56H776.49Z" fill="#403F3F"/>
<path id="Vector_27" opacity="0.1" d="M766.76 480.61L1021.23 530.74L1032.88 526.07L1032.84 525.25L766.76 480.61Z" fill="white"/>
</g>
<g id="man" opacity="0.9">
<path id="man-left-hand" d="M405.91 398.11C405.443 396.69 405.17 395.213 405.1 393.72C405.1 390.72 406.47 387.9 407.85 385.22L396.42 386.77C395.04 386.96 393.5 387.24 392.72 388.39C392.424 388.96 392.269 389.593 392.269 390.235C392.269 390.877 392.424 391.51 392.72 392.08C393.293 393.221 393.749 394.417 394.08 395.65C394.106 396.729 394.23 397.803 394.45 398.86C394.806 399.636 395.304 400.338 395.92 400.93C399.19 404.55 401.64 408.82 404.08 413.05C404.01 412.93 410.97 407.54 410.69 405.78C410.53 404.78 408.52 403.58 407.88 402.62C406.996 401.227 406.332 399.705 405.91 398.11V398.11Z" fill="#B9A571"/>
<g id="man-planche">
<path id="Vector_28" d="M503.91 359.04V368.89L335.24 401.79L326.49 407.09H296.3V401.54L462.02 361.5L503.91 359.04Z" fill="#403F3F"/>
</g>
<g id="man-bottom">
<g id="feets">
<path id="Vector_29" d="M368.49 632.881C366.611 630.695 364.016 629.184 361.129 628.594C358.242 628.005 355.233 628.371 352.59 629.634C352.024 629.89 351.526 630.264 351.13 630.729C350.13 632.074 350.77 633.928 350.86 635.59C351.09 639.644 347.73 642.94 344.71 645.774C343.09 647.291 341.44 648.915 340.71 650.98C339.98 653.046 340.52 655.668 342.48 656.744C343.335 657.156 344.266 657.404 345.22 657.474C348.416 658.073 351.694 658.161 354.92 657.734C358.11 657.148 361.24 655.409 362.62 652.585C362.886 651.819 363.327 651.12 363.91 650.538C365.67 649.203 368.37 650.769 370.37 649.818C372.02 649.03 372.09 647.791 372.11 646.158C372.17 641.643 371.47 636.532 368.49 632.881Z" fill="#FCF5B8"/>
<path id="Vector_30" d="M392.49 632.708C393.72 635.821 393.89 639.212 394.05 642.536C394.14 644.457 394.2 646.513 393.12 648.137C392.04 649.76 389.93 650.615 387.91 651.019C383.74 651.845 378.91 651.067 376.22 647.887C374.16 645.456 373.73 642.123 374.11 638.972C374.43 636.388 375.11 633.362 373.18 631.527C372.68 631.037 372.03 630.691 371.57 630.163C370.57 628.991 370.73 627.223 371.27 625.782C371.973 624.404 372.5 622.949 372.84 621.449C372.92 620.738 386.38 621.949 387.62 622.535C389.31 623.332 389.05 624.668 389.56 626.281C390.27 628.529 391.63 630.556 392.49 632.708Z" fill="#FCF5B8"/>
</g>
<path id="Vector_31" d="M394.96 494.698C397.6 496.341 398.62 499.569 399.03 502.566C400.16 510.78 398.18 519.08 398.03 527.371C397.89 538.985 401.39 550.811 398.4 562.061C396.61 568.785 398.13 576.471 396.45 583.263C395.95 585.28 395.03 587.182 394.55 589.2C393.55 593.571 394.6 598.143 396.01 602.418C396.46 603.571 396.746 604.776 396.86 606.002C396.792 607.889 396.294 609.738 395.4 611.42L389.4 625.052C388.73 626.579 386.09 626.829 384.4 627.031C381.22 627.396 377.67 627.655 375.14 625.763C372.61 623.87 372 620.7 371.61 617.741C370.862 612.061 370.528 606.337 370.61 600.612C370.72 599.118 370.582 597.617 370.2 596.164C369.65 594.522 368.44 593.1 368.11 591.361C367.69 589.113 368.88 586.904 369.32 584.636C369.622 582.566 369.588 580.463 369.22 578.402C368.83 575.328 368.38 572.253 367.87 569.198C367.15 564.923 368.18 560.706 368.87 556.422C369.52 552.396 368.69 548.294 367.87 544.298C367.941 547.541 367.52 550.778 366.62 553.905C366.09 555.432 365.33 556.892 364.87 558.449C362.82 565.433 367.19 572.763 366.57 579.996C366.28 583.378 364.9 586.721 365.29 590.055C365.56 592.495 366.74 594.733 367.55 597.058C368.36 599.383 368.78 602.044 367.55 604.215C364.3 610.113 366.73 618.135 369.64 624.187C370.231 625.261 370.745 626.371 371.18 627.511C372.04 630.239 371.32 633.169 371.55 636.013C370.713 636.145 369.855 636.091 369.042 635.857C368.229 635.622 367.483 635.212 366.86 634.659C366.42 634.217 366.06 633.698 365.63 633.237C364.429 632.137 363.006 631.284 361.45 630.729C360.536 630.238 359.495 630.008 358.45 630.067C357.351 630.361 356.362 630.951 355.6 631.767C354.611 632.602 353.562 633.37 352.46 634.063C351.991 634.409 351.442 634.643 350.86 634.745C350.567 634.788 350.268 634.742 350.004 634.613C349.74 634.484 349.525 634.278 349.39 634.024C349.328 633.864 349.29 633.696 349.28 633.525C348.909 630.624 348.712 627.705 348.69 624.783C348.69 619.759 342.43 616.3 341.64 611.333C341.01 607.327 342.18 603.245 341.79 599.21C341.6 597.135 341 595.098 341.04 593.023C341.04 591.678 341.36 590.362 341.47 589.027C341.562 587.544 341.538 586.058 341.4 584.579L341.09 579.939C340.79 575.356 340.46 570.678 338.58 566.489C336.351 561.599 335.031 556.37 334.68 551.042C334.48 547.679 334.61 544.317 334.21 540.945C333.85 537.9 333.05 534.874 333.28 531.819C333.47 529.455 334.28 527.169 334.47 524.806C334.86 520.262 333.06 515.843 331.65 511.491C330.24 507.139 329.2 502.317 331.05 498.118C331.314 497.429 331.754 496.815 332.33 496.332C333.039 495.881 333.847 495.592 334.69 495.486C351.847 492.024 369.434 490.946 386.91 492.287C389.759 492.442 392.524 493.271 394.96 494.698Z" fill="#403F3F"/>
</g>
<g id="man-head">
<path id="Vector_32" d="M338.19 388.61C347.038 388.61 354.21 381.438 354.21 372.59C354.21 363.742 347.038 356.57 338.19 356.57C329.342 356.57 322.17 363.742 322.17 372.59C322.17 381.438 329.342 388.61 338.19 388.61Z" fill="#B9A571"/>
<path id="Vector_33" d="M335.09 392.6C335.32 393.516 335.32 394.474 335.09 395.39C334.838 396.03 334.483 396.624 334.04 397.15C332.489 399.15 330.773 401.017 328.91 402.73C329.859 404.85 331.568 406.538 333.7 407.46C335.817 408.361 338.037 408.996 340.31 409.35C341.445 409.648 342.625 409.73 343.79 409.59C344.863 409.32 345.88 408.86 346.79 408.23L355.69 402.9C357.033 402.173 358.276 401.275 359.39 400.23C361.022 398.552 361.946 396.311 361.97 393.97C362.011 393.551 361.898 393.131 361.65 392.79C361.309 392.493 360.881 392.314 360.43 392.28C357.3 391.59 354.83 389.05 353.43 386.17C352.164 383.218 351.345 380.093 351 376.9L341.51 381.9C340.1 382.65 338.7 383.4 337.24 384.05C336.31 384.47 334.43 384.82 333.77 385.67C332.51 387.24 334.76 390.71 335.09 392.6Z" fill="#B9A571"/>
</g>
<g id="man-pull">
<path id="Vector_34" d="M411.26 406.81C412.31 407.38 413.313 408.032 414.26 408.76C415.38 409.741 416.387 410.844 417.26 412.05C421.55 417.6 425.51 424.05 425.09 431.05C425.099 432.068 424.907 433.079 424.524 434.023C424.141 434.966 423.576 435.825 422.86 436.55C421.09 438.06 418.55 438.13 416.23 438.13C413.71 438.13 411.06 438.13 408.88 436.83C406.7 435.53 404.88 433 402.3 433.06C401.936 433.12 401.564 433.12 401.2 433.06C400.31 432.77 400.13 431.6 399.55 430.86C398.55 429.53 396.44 429.86 394.87 430.44C393.3 431.02 391.56 431.89 390.01 431.22C389.11 430.745 388.375 430.01 387.9 429.11C384.19 423.11 383.4 415.9 382.7 408.93C382.27 404.69 378.99 390.23 388.04 393.52C392.04 394.96 395.78 397.84 399.42 399.95L411.26 406.81Z" fill="#403F3F"/>
<path id="Vector_35" d="M402.32 408.24C403.128 408.821 404.108 409.116 405.103 409.076C406.098 409.036 407.051 408.664 407.81 408.02C409.299 406.674 410.248 404.833 410.48 402.84C411.48 402.53 411.99 403.84 412.63 404.64C413.75 406 416.03 405.98 417.05 407.43C417.76 408.43 417.6 409.82 418.1 410.95C418.75 412.41 420.36 413.17 421.46 414.35C422.499 415.639 423.249 417.136 423.66 418.74L425.3 423.66C426.085 425.706 426.589 427.849 426.8 430.03C426.903 431.12 426.789 432.22 426.462 433.266C426.136 434.312 425.605 435.282 424.9 436.12C422.7 438.49 419.09 438.74 415.9 438.67C414.835 438.693 413.771 438.568 412.74 438.3C409.91 437.42 408.1 434.57 407.35 431.7C406.6 428.83 406.68 425.82 406.24 422.88C405.765 419.992 404.925 417.176 403.74 414.5C402.86 412.42 400.44 409.32 400.48 407.11C401.2 407.11 401.72 407.77 402.32 408.24Z" fill="#403F3F"/>
<path id="Vector_36" d="M328.97 399.82C327.619 400.928 326.564 402.354 325.9 403.97C325.28 405.97 325.9 408.08 326.46 410.06C329.085 418.499 331.09 427.119 332.46 435.85C333.3 441.85 333.61 447.94 334.02 454.01C334.86 466.39 336.08 486.13 337.71 498.43C343.71 498.7 349.56 496.95 355.51 496.31C366.63 495.13 378.08 497.83 388.97 495.31C386.33 484.88 383.69 467.07 381.05 456.65C379.882 452.545 379.072 448.345 378.63 444.1C378.4 441.05 378.54 437.99 378.58 434.92C378.67 428.92 378.34 422.92 378.01 416.92C377.63 409.92 377.25 402.92 375.59 396.07C375.474 395.197 375.065 394.39 374.43 393.78C373.43 393.05 372.13 393.31 370.94 393.47C367.296 393.933 363.608 393.059 360.56 391.01C359.24 390.11 357.47 389.01 356.24 390.01C355.715 390.613 355.369 391.351 355.24 392.14C354.696 393.555 353.856 394.837 352.776 395.901C351.697 396.965 350.402 397.786 348.98 398.31C346.13 399.342 343.146 399.955 340.12 400.13C339.194 400.329 338.228 400.22 337.37 399.82C335.95 398.95 335.85 395.82 334.06 395.61C332.49 395.43 330.03 398.81 328.97 399.82Z" fill="#403F3F"/>
<path id="Vector_37" d="M352.63 424.24C348.94 420.71 347.32 415.59 344.63 411.24C342.798 408.315 340.458 405.741 337.72 403.64C336.344 402.731 335.081 401.66 333.96 400.45C333.01 399.28 332.29 397.72 330.85 397.27C330.255 397.141 329.637 397.158 329.05 397.32C328.463 397.482 327.924 397.784 327.48 398.2C326.598 399.04 325.764 399.928 324.98 400.86C320.74 405.25 313.29 405.86 309.93 410.94C309.024 412.017 308.407 413.308 308.14 414.69C307.173 422.084 309.084 429.566 313.48 435.59C314.331 436.986 315.638 438.046 317.18 438.59C316.971 440.455 317.218 442.342 317.9 444.09C319.752 450.419 322.027 456.616 324.71 462.64C324.068 464.996 323.62 467.401 323.37 469.83C322.67 475.94 323.32 482.14 322.66 488.26C322.12 493.26 320.66 498.13 320.61 503.14C320.61 503.94 320.68 504.89 321.37 505.3C321.737 505.489 322.148 505.575 322.56 505.55L334.86 505.92C342 506.13 349.21 506.34 356.24 505.02C357.176 504.881 358.084 504.595 358.93 504.17C361.31 502.84 362.1 499.84 362.48 497.17C362.976 493.707 363.174 490.207 363.07 486.71C364.56 491.42 366.33 496.29 370.83 498.33C373.21 499.41 375.93 499.33 378.54 499.26C384.165 499.009 389.772 498.432 395.33 497.53C395.673 497.573 396.02 497.534 396.345 497.418C396.67 497.302 396.964 497.112 397.202 496.862C397.44 496.612 397.616 496.31 397.717 495.98C397.817 495.649 397.839 495.3 397.78 494.96L397.84 489.5C397.96 478.41 395.21 467.81 394.14 456.77C393.8 453.29 393.83 449.77 392.98 446.36C392.63 444.93 392.12 443.53 391.81 442.09C391.543 440.68 391.376 439.253 391.31 437.82L390.53 426.82C390.16 421.73 389.63 416.82 389.24 411.74C389.026 406.793 388.309 401.881 387.1 397.08C386.23 394.08 384.42 390.68 381.29 390.31C379.62 390.12 378 390.85 376.41 391.36C372.502 392.59 368.308 392.573 364.41 391.31C363.206 390.834 361.951 390.499 360.67 390.31C360.025 390.222 359.369 390.307 358.768 390.557C358.167 390.807 357.643 391.211 357.25 391.73C356.862 392.511 356.68 393.379 356.72 394.25C356.25 404.24 355.38 414.53 352.63 424.24Z" fill="#FCF5B8"/>
<path id="Vector_38" d="M336.54 424.54C331.93 419.68 327.2 414.73 321.26 411.64C318.92 410.42 316.26 409.5 313.67 409.96C311.08 410.42 308.67 412.67 308.79 415.3C308.87 416.93 309.86 418.37 310.17 419.97C310.53 421.77 310.01 423.69 310.57 425.43C311.025 426.577 311.705 427.62 312.57 428.5L319.65 436.89C322.65 440.39 325.65 443.94 329.51 446.36C333.37 448.78 338.37 449.91 342.61 448.19C345.627 446.788 348.135 444.486 349.79 441.6C351.55 438.8 352.79 435.74 354.44 432.85C357.008 428.232 360.397 424.122 364.44 420.72C362.36 420.18 359.75 419.42 358.44 417.72C358.067 417.18 357.749 416.603 357.49 416L355.87 412.5C355.319 412.471 354.768 412.557 354.252 412.751C353.736 412.946 353.265 413.245 352.87 413.63C352.175 414.433 351.43 415.191 350.64 415.9C349.23 416.96 347.32 417.25 346.04 418.46C345.545 418.979 345.096 419.542 344.7 420.14C343.732 421.412 342.503 422.463 341.096 423.222C339.688 423.981 338.135 424.43 336.54 424.54Z" fill="#403F3F"/>
<path id="Vector_39" d="M330.74 420.24C331.34 420.61 332.08 421.03 332.74 420.72C333.01 420.557 333.239 420.335 333.41 420.07C334.553 418.544 335.507 416.886 336.25 415.13C336.378 414.882 336.45 414.609 336.46 414.33C336.46 413.69 335.89 413.22 335.36 412.85C332.52 411.04 329.467 409.589 326.27 408.53C323.63 407.53 320.87 406.66 318.07 406.91C317.018 406.981 315.991 407.263 315.051 407.741C314.111 408.219 313.277 408.882 312.6 409.69C310.6 412.26 313.95 413.04 316.05 413.97C320.91 416.18 326.17 417.46 330.74 420.24Z" fill="#FCF5B8"/>
</g>
<g id="man-top">
<path id="Vector_40" d="M323.77 374.97C326.31 372.9 324.84 368.56 326.56 365.78C327.56 364.26 329.25 363.46 330.91 362.78C332.913 361.843 335.06 361.248 337.26 361.02C338.362 360.914 339.473 361.058 340.512 361.44C341.551 361.823 342.49 362.435 343.26 363.23C343.91 363.97 344.35 364.87 344.96 365.64C345.715 366.538 346.7 367.215 347.809 367.599C348.918 367.983 350.111 368.059 351.26 367.82C352.59 367.52 353.97 366.51 353.88 365.15C353.73 364.323 353.307 363.57 352.68 363.01L349.82 359.84C346.57 356.24 342.96 352.42 338.19 351.52C334.87 350.89 331.47 351.78 328.27 352.85C326.98 353.28 325.53 353.92 325.17 355.23C324.93 356.13 325.29 357.11 325.08 358.02C324.67 359.83 322.35 360.44 321.27 361.96C320.19 363.48 320.52 365.28 320.21 366.96C319.9 368.64 319 370.28 318.89 372.02C318.82 373.07 319.35 375.02 320.53 375.4C321.71 375.78 323.04 373.72 323.77 374.97Z" fill="#403F3F"/>
<path id="Vector_41" d="M352.91 363.71C352.067 359.31 350.249 355.155 347.59 351.55C345.226 348.181 341.937 345.57 338.12 344.03C336.212 343.284 334.16 342.981 332.118 343.142C330.076 343.303 328.097 343.925 326.33 344.96C323.706 346.833 321.665 349.408 320.44 352.39C317.85 357.97 316.89 364.79 319.9 370.15C321.1 368.69 323.16 369.35 324.98 368.82C327.26 368.17 329.19 366.65 331.36 365.7C337.91 362.81 345.91 365.15 352.91 363.71Z" fill="#FCF5B8"/>
</g>
<path id="man-right-hand" d="M364.81 403.63C368.28 397.3 368.12 389.71 369.11 382.56C369.217 380.666 369.882 378.847 371.02 377.33C373.02 375.07 376.55 375.04 379.57 375.33C380.46 375.43 381.57 375.85 381.52 376.74C381.45 377.059 381.294 377.353 381.07 377.59C378.143 381.368 376.421 385.94 376.13 390.71C377.7 391.8 380.13 389.56 381.64 390.71C382.64 391.55 382.18 393.21 381.58 394.41C380.187 397.19 378.75 399.95 377.27 402.69C376.089 405.105 374.548 407.327 372.7 409.28C371.43 410.5 369.94 411.46 368.65 412.66C365.65 415.47 363.84 419.44 360.74 422.18C360.478 422.464 360.123 422.645 359.74 422.69C359.346 422.662 358.974 422.495 358.69 422.22C357.141 420.96 355.857 419.407 354.91 417.65C353.73 415.47 353.91 414.83 355.77 413.29C359.25 410.54 362.64 407.59 364.81 403.63Z" fill="#B9A571"/>
</g>
</g>
</g>
<defs>
<clipPath id="clip0">
<rect width="1177.82" height="724.47" fill="white"/>
</clipPath>
</defs>
</svg>
